<svg xmlns="http://www.w3.org/2000/svg" viewBox="0 0 200 200">
  <g stroke="#a58e28" fill="none" stroke-width="1.5" stroke-linecap="round" stroke-linejoin="round">
    <!-- Watch case -->
    <circle cx="100" cy="100" r="62"/>
    <circle cx="100" cy="100" r="56"/>
    <!-- Crown -->
    <rect x="162" y="94" width="10" height="12" rx="2"/>
    <!-- Hour markers -->
    <line x1="100" y1="48" x2="100" y2="54"/>
    <line x1="100" y1="146" x2="100" y2="152"/>
    <line x1="48" y1="100" x2="54" y2="100"/>
    <line x1="146" y1="100" x2="152" y2="100"/>
    <!-- Subtle markers -->
    <line x1="128" y1="52" x2="126" y2="56"/>
    <line x1="144" y1="72" x2="140" y2="74"/>
    <line x1="144" y1="128" x2="140" y2="126"/>
    <line x1="128" y1="148" x2="126" y2="144"/>
    <line x1="72" y1="148" x2="74" y2="144"/>
    <line x1="56" y1="128" x2="60" y2="126"/>
    <line x1="56" y1="72" x2="60" y2="74"/>
    <line x1="72" y1="52" x2="74" y2="56"/>
    <!-- Hour hand -->
    <line x1="100" y1="100" x2="100" y2="68" stroke-width="2"/>
    <!-- Minute hand -->
    <line x1="100" y1="100" x2="124" y2="76" stroke-width="1"/>
    <!-- Centre dot -->
    <circle cx="100" cy="100" r="2" fill="#a58e28" stroke="none"/>
    <!-- Lugs -->
    <path d="M82 40 L82 30 Q82 26 86 26 L90 26"/>
    <path d="M118 40 L118 30 Q118 26 114 26 L110 26"/>
    <path d="M82 160 L82 170 Q82 174 86 174 L90 174"/>
    <path d="M118 160 L118 170 Q118 174 114 174 L110 174"/>
  </g>
</svg>